<?xml version="1.0" encoding="UTF-8"?>
<svg id="_レイヤー_1" data-name="レイヤー_1" xmlns="http://www.w3.org/2000/svg" version="1.1" viewBox="0 0 300 300">
  <!-- Generator: Adobe Illustrator 29.8.3, SVG Export Plug-In . SVG Version: 2.1.1 Build 3)  -->
  <defs>
    <style>
      .st0 {
        fill: #8dd1e9;
      }

      .st1 {
        fill: #0e4875;
      }
    </style>
  </defs>
  <g>
    <path class="st1" d="M270.7,120.46l-1.18-10.91c-7.74-50.24-46.78-89.47-96.81-97.92l-11.32-1.45h-16.94s-.08.01-.12.02c-1.05.77-2.54.34-3.77.45-51.49,4.59-94.4,44.64-103.61,95.49-14.31,79.01,48.82,146.96,128.47,139.33,56.95-5.45,102.29-52.92,105.29-110.05.26-4.91-.19-10.03,0-14.96ZM262.01,123.62c-.49,1.66-3.49,6.36-4.56,8.1-15.63,25.53-42.11,46.54-73.16,47.69-23.85.88-52.1-12.65-54.89-38.81-.05-.5.09-2.51,0-2.64-.02-.03-.33.02-.46,0-.55,2.65.7,8.56,1.5,11.28,5.71,19.53,26.48,31.21,45.6,33.81,33.05,4.49,63.86-12.29,84.08-37.39.35-.43.78-.95.93-1.49.43-.05.19.48.16.74-.82,7.05-3.09,14.44-5.46,20.9-3.85,10.52-9.88,22.26-17.17,30.83-.92,1.08-.94,1.24-2.33,1.81-10.38,4.24-26.25,7.01-37.45,7.2-28.93.5-61.3-12.8-73.97-40.22-6.34-13.72-6.09-32.22,3.65-44.29-.06-.09.66-1.45-.58-.23-10.07,9.95-11.02,29.06-7.08,41.85,11.04,35.8,53.76,53.8,88.78,51.39,4.46-.31,8.85-1.07,13.24-1.84-2.34,2.21-5.21,4.41-7.89,6.27-3.31,2.29-6.75,4.27-10.29,6.16-9.68,5.16-19.28,8.74-30.14,10.71-1.84.33-5.99,1.28-7.6.92-1.95-.44-7.08-3.18-9.13-4.22-24.87-12.64-45.6-33.6-52.01-61.47-4.19-18.21-1.61-38.36,11.55-52.31,6.83-7.23,16.15-11.58,26.12-12.2.3-.02,1.16.2,1.15-.23-20.6-.67-35.96,14.12-41.77,32.92-7.41,23.97-.71,49.97,13.27,70.06,7.97,11.44,18.62,20.89,30.34,28.36-7.63-.36-15.2-1.61-22.55-3.57-10.42-2.78-19.63-6.86-28.75-12.57-1.64-1.03-6.38-3.8-7.2-5.23-2.77-4.83-5.62-14.6-7.02-20.14-8.02-31.6-1.71-70.71,26.56-90.25,16.95-11.72,40.43-13.37,57.26-.5.72.55,2.89,2.25,3.37,2.87.23.3.1.32-.03.58l2.07,1.04c-18.25-22.57-53.29-18.62-73.42-.7-21.22,18.9-30.23,49.72-27.38,77.59.53,5.2,1.58,10.46,2.76,15.54-4.65-4.67-8.83-10.29-12.29-15.9-.51-.82-.86-1.78-1.29-2.51-7.22-12.38-12.17-25.48-13.93-39.83,12.21-30.87,37.35-58.65,71.42-64.16,28.83-4.67,61.46,9.01,64.26,41.14.06.67-.24,1.92.46,2.3,1.16-22.07-15.01-38.37-34.76-45-25.5-8.56-52.39-2.09-73.71,13.27-11.4,8.22-20.96,18.62-28.35,30.58-.06-1.99.13-4.09.35-6.1.62-5.71,1.75-11.19,3.22-16.69,3.26-12.19,8.52-24.27,16.15-34.38.92-1.21,1.03-1.46,2.41-2.2,10.77-5.74,27.88-9.29,40.01-10.16,28.51-2.05,63,9.72,77.25,35.99,7.79,14.37,8.6,33.42-1.42,46.89l-.12.92c3.73-3.81,6.21-8.83,7.72-13.92,1.4-4.72,2.11-10.77,1.85-15.67-1.79-33.47-35.85-56.72-66.36-61.79h0c.01-.12-6.42-1.12-13.97-1.4-.82-.03-4.12-.12-8.52,0-3.86.11-8.01.36-11.83.95-3.61.55-7.14,1.61-10.73,2.27,4.78-4.3,10.12-8.54,15.67-11.83.8-.48,2.9-1.87,3.66-1.98,12.91-7.62,27.7-11.96,42.63-13.54,31.07,12.57,60.94,39.99,64.16,75.12,2.43,26.53-12.06,53.8-40.27,57.21.05.38,1.79.25,2.18.23,29.38-1.95,44.89-34.87,42.65-61.12-2.53-29.63-20.74-54.93-45.06-70.91,3.02-.07,6.44.55,9.44,1.14,5.1,1.01,9.86,2.57,14.72,4.27,12.22,4.28,22.37,9.93,32.43,18.1,1.31,1.07,3.29,2.48,4.4,3.65,1.03,1.09,3.25,9.67,3.75,11.68,6.95,28.28,3.42,60.05-15.83,82.61-18.73,21.95-50.91,29.24-73.41,8.28-.19-.17-.61-.77-.81-.23,13.27,16.72,39.09,18.04,57.39,9.64,32.96-15.13,48.11-54.66,44.79-89.18-.18-1.87-.71-3.77-.92-5.64l1.25,1.4c4.26,5.87,7.58,12.25,10.49,18.86,4.45,10.12,7.19,20.16,8.49,31.22.24,2.01.83,6.3.31,8.08Z"/>
    <path class="st0" d="M180.25,120.69c-1.23-3.69-2.34-7.11-4.41-10.44-11.05-17.75-32.91-24.7-52.95-20.82-36.27,7.02-59.43,42.97-63.46,77.87-.52,4.47-.22,8.92-.45,13.34-.04.83-.28,2.06-.47,2.89-7.22-12.38-12.17-25.48-13.93-39.83,12.21-30.87,37.35-58.65,71.42-64.16,28.83-4.67,61.46,9.01,64.26,41.14Z"/>
    <path class="st0" d="M99.24,32.74c12.91-7.62,27.7-11.96,42.63-13.54,31.07,12.57,60.94,39.99,64.16,75.12,2.43,26.53-12.06,53.8-40.27,57.21-.14-1.05,1.28-.85,1.85-1.03,8.55-2.7,14.43-6.22,19.77-13.43,11.4-15.37,11.97-35.22,4.42-52.47-12.84-29.33-45.94-47.74-76.82-51.39-4.12-.49-11.78-1.04-15.74-.49Z"/>
    <path class="st0" d="M123.87,233.73c-10.42-2.78-19.63-6.86-28.75-12.57-1.64-1.03-6.38-3.8-7.2-5.23-2.77-4.83-5.62-14.6-7.02-20.14-8.02-31.6-1.71-70.71,26.56-90.25,16.95-11.72,40.43-13.37,57.26-.5.72.55,2.89,2.25,3.37,2.87.23.3.1.32-.03.58-.16.32-.62.92-1,.89-.42-.04-3.2-2.13-3.91-2.54-17.76-10.16-40.6-5.69-54.13,9.25-23.08,25.48-19.15,64.67-3.45,93.02,5.04,9.1,10.76,16.12,17.73,23.7.26.28.58.47.57.92Z"/>
    <path class="st0" d="M189.69,25.15c12.22,4.28,22.37,9.93,32.43,18.1,1.31,1.07,3.29,2.48,4.4,3.65,1.03,1.09,3.25,9.67,3.75,11.68,6.95,28.28,3.42,60.05-15.83,82.61-18.73,21.95-50.91,29.24-73.41,8.28-.19-.17-.61-.77-.81-.23-.1-.12-.53-.16-.45-.55.05-.27,1.24-1.38,1.67-1.26.26.07,3.47,2.68,4.23,3.16,21.12,13.12,45.9,3.26,59.54-15.4,22-30.08,13.06-72.82-8.05-100.8l-7.46-9.23Z"/>
    <path class="st0" d="M47.46,99.05c3.26-12.19,8.52-24.27,16.15-34.38.92-1.21,1.03-1.46,2.41-2.2,10.77-5.74,27.88-9.29,40.01-10.16,28.51-2.05,63,9.72,77.25,35.99,7.79,14.37,8.6,33.42-1.42,46.89-.52-.17-.5-.53-.42-.98.15-.88,1.36-3.07,1.73-4.27,9.17-29.35-15.69-53.38-42.05-60.25-31.49-8.21-71.15,4.89-92.85,28.8-.21.24-.45.62-.82.56Z"/>
    <path class="st0" d="M143.43,106.18c.06.56-.04.72-.55.95-.75.33-2.36.46-3.35.79-20.34,6.76-29.15,29.83-25.73,49.89,6.55,38.33,48.53,63.86,84.98,66.48,1.93.14,4.06-.36,5.87.46-9.68,5.16-19.28,8.74-30.14,10.71-1.84.33-5.99,1.28-7.6.92-1.95-.44-7.08-3.18-9.13-4.22-24.87-12.64-45.6-33.6-52.01-61.47-4.19-18.21-1.61-38.36,11.55-52.31,6.83-7.23,16.15-11.58,26.12-12.2Z"/>
    <path class="st0" d="M129.39,137.96s-.33.02-.46,0c.04-.18.36-.55.46-.46.03.14-.04.41,0,.46.02.02.25-.23.46-.12.39.21,1.21,3.67,1.5,4.48,5.42,14.74,20.74,24.42,35.92,26.69,32.59,4.86,61.19-18.96,75.19-46.28,6.11-11.92,9.57-24.98,10.74-38.41,4.45,10.12,7.19,20.16,8.49,31.22.24,2.01.83,6.3.31,8.08-.49,1.66-3.49,6.36-4.56,8.1-15.63,25.53-42.11,46.54-73.16,47.68-23.85.88-52.1-12.65-54.89-38.81-.05-.5.09-2.51,0-2.64Z"/>
    <path class="st0" d="M128.47,121.15c.05.07.98.04.92,1.02-.04.69-2.22,4.88-2.64,6.13-8.56,25.71,11.01,48.68,33.82,57.32,29.73,11.26,62.85,3.29,88.01-14.64,2.05-1.46,4.06-3.35,6.1-4.72.34-.23.54-.54,1.05-.44-3.85,10.52-9.88,22.26-17.17,30.83-.92,1.08-.94,1.24-2.33,1.81-10.38,4.24-26.25,7.01-37.45,7.2-28.93.5-61.3-12.8-73.97-40.22-6.34-13.72-6.09-32.22,3.65-44.29Z"/>
  </g>
  <g>
    <path class="st1" d="M42.32,188.93l-30.01,7.83-3.74-9.46c3.3-1.9,7.67-4.32,13.12-7.27-2.61.76-5.28,1.43-8,2.03l-6.59,1.5-3.74-9.48,27.18-15,2.97,7.51c-.72.35-5.94,3.15-15.65,8.38,1.09-.32,6.81-1.82,17.17-4.52l2.85,7.22-15.7,8.24c4.9-1.61,10.63-3.1,17.19-4.48l2.96,7.51Z"/>
    <path class="st1" d="M41.16,214.92l-6.7-10.12-5.55,3.68c-1.16.77-1.85,1.35-2.08,1.74-.22.39-.18.82.14,1.3.39.59.88.84,1.46.75.58-.09,1.5-.57,2.78-1.41l3.38-2.24,4.91,7.41-1.9,1.26c-1.58,1.05-2.87,1.76-3.85,2.12-.98.36-2.2.5-3.66.41-1.45-.09-2.8-.55-4.03-1.35-1.23-.81-2.41-2.06-3.54-3.76-1.09-1.65-1.82-3.27-2.18-4.85-.36-1.58-.36-3,0-4.25.37-1.25.96-2.35,1.78-3.28.82-.93,2.18-2.03,4.09-3.3l7.48-4.96c2.24-1.49,4.21-2.36,5.91-2.61,1.7-.25,3.35.08,4.95,1,1.6.92,3,2.28,4.19,4.07,1.45,2.19,2.24,4.28,2.35,6.25.11,1.98-.33,3.71-1.32,5.19-.99,1.48-2.73,3.05-5.22,4.7l-3.4,2.26ZM40.15,204.32l1.88-1.24c1.33-.88,2.14-1.52,2.43-1.92.29-.4.29-.82,0-1.26-.36-.54-.75-.77-1.16-.68-.41.09-1.34.61-2.79,1.57l-1.88,1.24,1.51,2.28Z"/>
    <path class="st1" d="M66.77,209.33l-6.4,6.17c1.19-.07,2.27.09,3.24.47.98.38,1.86.97,2.63,1.77.89.92,1.52,1.87,1.88,2.82.36.96.46,1.87.28,2.73s-.49,1.57-.92,2.12c-.43.56-1.46,1.62-3.1,3.2l-9.99,9.63c-1.63,1.57-2.94,2.63-3.95,3.18-1.01.55-2.19.71-3.54.47-1.36-.24-2.57-.91-3.63-2.01-.76-.79-1.3-1.7-1.61-2.71s-.4-2.14-.25-3.38l-2.09,1.18-6.09-6.32,27.05-26.06,6.5,6.75ZM57.58,222.16c1.15-1.11,1.83-1.9,2.04-2.38.21-.48.11-.94-.29-1.36-.4-.41-.81-.53-1.23-.36-.42.17-1.25.85-2.49,2.05l-9.56,9.21c-1.19,1.15-1.89,1.95-2.09,2.41s-.1.9.3,1.31c.41.42.85.53,1.32.33.47-.21,1.36-.94,2.67-2.21l9.34-9Z"/>
    <path class="st1" d="M85.74,233.75l-1.58,2.22c1.29-.49,2.51-.7,3.65-.63,1.14.07,2.21.42,3.23,1.06,1.23.77,2.09,1.77,2.58,2.99.48,1.22.57,2.34.25,3.34-.32,1.01-1.12,2.54-2.42,4.62l-6.87,11c-1.48,2.37-2.68,3.98-3.59,4.8-.91.83-1.99,1.27-3.23,1.32-1.25.05-2.48-.31-3.72-1.08-.98-.61-1.75-1.41-2.3-2.4-.55-.98-.89-2.15-1.02-3.49l-3.74,5.99-7.95-4.96,18.63-29.83,8.09,5.05ZM83.26,242.76c1.01-1.61,1.56-2.63,1.65-3.04.1-.42-.13-.79-.66-1.13-.52-.33-.99-.34-1.38-.04-.4.3-1.07,1.2-2.01,2.71l-6.76,10.82c-.98,1.57-1.52,2.61-1.61,3.1s.13.9.65,1.23c.51.32.94.34,1.29.05.35-.28.96-1.12,1.83-2.51l6.99-11.2Z"/>
    <path class="st1" d="M106.25,244.31l-1.93,3.58c2.39-2.14,4.8-2.78,7.25-1.92l-4.24,9.97c-1.58-.67-2.83-.95-3.75-.84-.92.11-1.63.51-2.12,1.2s-1.33,2.41-2.49,5.15l-4.76,11.19-8.63-3.67,12.04-28.33,8.63,3.67Z"/>
    <path class="st1" d="M129.92,262.55l-1.84,7.31c-.68,2.69-1.31,4.62-1.89,5.8-.59,1.19-1.46,2.21-2.62,3.07-1.16.86-2.5,1.38-4.01,1.55-1.52.17-3.18.03-4.98-.43-2.01-.51-3.66-1.16-4.94-1.95-1.28-.79-2.2-1.73-2.75-2.82-.55-1.09-.83-2.31-.84-3.66-.01-1.35.3-3.29.94-5.83l1.93-7.65c.7-2.77,1.54-4.87,2.54-6.28.99-1.41,2.39-2.39,4.19-2.94,1.8-.55,3.91-.52,6.34.09,2.04.51,3.71,1.26,5.02,2.23,1.31.98,2.24,2.05,2.79,3.23.55,1.18.84,2.32.87,3.43s-.22,2.72-.75,4.84ZM121.4,258.01c.38-1.53.55-2.51.48-2.95-.07-.44-.37-.73-.91-.86-.54-.14-.95-.03-1.23.33-.28.35-.61,1.29-1,2.82l-3.39,13.48c-.36,1.41-.5,2.35-.42,2.82.07.47.37.78.9.91.54.14.94.03,1.22-.32.27-.35.57-1.16.89-2.45l3.47-13.77Z"/>
    <path class="st1" d="M155.71,253.84l-1.86,23.64c-.25,3.19-.49,5.25-.71,6.17-.22.92-.82,1.87-1.79,2.84-.98.97-2.28,1.67-3.92,2.09-1.64.42-3.67.54-6.09.35-2.98-.23-5.33-.93-7.05-2.08s-2.5-3.21-2.33-6.18l9.07.71c-.11,1.36.33,2.07,1.32,2.15.71.06,1.2-.12,1.46-.51.26-.4.45-1.26.55-2.59l.18-2.32c-.86.66-1.75,1.15-2.66,1.45-.92.3-1.86.41-2.83.34-1.68-.13-3.04-.58-4.07-1.34-1.03-.76-1.71-1.71-2.02-2.85-.31-1.13-.39-2.72-.23-4.75l.88-11.15c.23-2.91.92-4.97,2.07-6.17,1.15-1.2,2.8-1.71,4.94-1.54,1.17.09,2.22.42,3.15.97.93.56,1.73,1.34,2.41,2.36l.85-2.27,8.7.68ZM145.7,261.25c.11-1.4.1-2.3-.03-2.7-.13-.4-.47-.62-1.03-.66-.54-.04-.94.15-1.2.57-.26.42-.44,1.28-.54,2.58l-.81,10.32c-.11,1.37-.09,2.27.04,2.69.14.42.48.65,1.02.7.62.05,1.04-.17,1.26-.65.22-.48.4-1.59.54-3.33l.75-9.51Z"/>
    <path class="st1" d="M166.65,252.54v4.07c1.09-3.01,2.92-4.71,5.47-5.11l.96,10.79c-1.71.15-2.95.49-3.7,1.03-.76.53-1.2,1.22-1.31,2.06-.11.84-.04,2.75.23,5.72l1.07,12.11-9.34.83-2.72-30.67,9.34-.83Z"/>
    <path class="st1" d="M183.94,261.66l-8.54,2.11-.5-2c-.57-2.31-.75-4.16-.52-5.55.22-1.39,1.02-2.76,2.39-4.12,1.37-1.36,3.34-2.35,5.91-2.99,3.08-.76,5.53-.79,7.36-.09,1.83.7,3.1,1.81,3.81,3.31.71,1.51,1.67,4.73,2.89,9.67l3.71,15-8.85,2.19-.66-2.66c-.29,1.21-.81,2.18-1.56,2.93s-1.73,1.28-2.94,1.58c-1.59.39-3.16.31-4.71-.26-1.55-.57-2.7-2.36-3.44-5.37l-.61-2.46c-.55-2.24-.58-3.85-.07-4.83.51-.98,2.02-2.36,4.55-4.13,2.7-1.91,4.1-3.09,4.21-3.55.11-.46.01-1.31-.3-2.56-.39-1.56-.75-2.55-1.1-2.97s-.79-.56-1.34-.42c-.62.15-.95.45-1,.88-.05.44.13,1.49.54,3.15l.77,3.13ZM187.83,265.05c-1.19,1.43-1.82,2.53-1.87,3.31s.08,1.84.42,3.19c.38,1.55.73,2.52,1.04,2.92.31.4.77.53,1.37.38.57-.14.9-.41.98-.81.08-.4-.06-1.34-.43-2.85l-1.52-6.15Z"/>
    <path class="st1" d="M202.8,243.13l1.18,2.69c.12-1.37.5-2.53,1.13-3.51.63-.97,1.52-1.75,2.67-2.33,2.23-1.13,4.52-.99,6.85.43.18-1.39.58-2.57,1.2-3.54.62-.97,1.47-1.72,2.54-2.27,1.42-.72,2.77-.97,4.05-.76,1.28.22,2.31.76,3.07,1.63.77.87,1.73,2.42,2.87,4.67l9.9,19.51-8.11,4.12-9.08-17.9c-1.19-2.34-2.01-3.76-2.45-4.23-.44-.48-.95-.57-1.53-.28-.59.3-.84.77-.73,1.41.11.64.76,2.14,1.96,4.5l9.08,17.9-8.11,4.12-8.85-17.44c-1.36-2.69-2.25-4.27-2.65-4.74-.4-.47-.9-.56-1.5-.25-.37.19-.62.49-.74.91-.12.42-.09.83.09,1.26.18.42.6,1.29,1.28,2.62l9.66,19.03-8.11,4.12-13.94-27.45,8.26-4.19Z"/>
    <path class="st1" d="M231.96,225.36l1.86,2.27c-.25-1.35-.2-2.58.15-3.68.35-1.11,1-2.1,1.94-2.96,1.85-1.69,4.09-2.17,6.72-1.43-.2-1.39-.14-2.63.2-3.73.34-1.1.95-2.05,1.84-2.87,1.17-1.08,2.41-1.68,3.7-1.82,1.29-.13,2.43.11,3.4.74.97.63,2.31,1.87,4.02,3.73l14.78,16.13-6.71,6.14-13.56-14.8c-1.78-1.94-2.94-3.08-3.49-3.42-.56-.34-1.07-.29-1.55.15-.49.45-.6.97-.32,1.55.27.59,1.31,1.86,3.09,3.81l13.56,14.8-6.71,6.14-13.21-14.42c-2.04-2.22-3.31-3.51-3.83-3.85-.52-.35-1.02-.29-1.51.16-.31.28-.46.64-.47,1.07,0,.43.14.83.42,1.18s.93,1.08,1.93,2.18l14.42,15.74-6.71,6.14-20.8-22.7,6.83-6.25Z"/>
    <path class="st1" d="M275.27,199.14l-6.88,9.99,5.49,3.78c1.15.79,1.94,1.22,2.39,1.28.44.06.83-.14,1.15-.61.4-.59.45-1.13.15-1.63-.3-.5-1.09-1.18-2.35-2.05l-3.34-2.3,5.04-7.32,1.87,1.29c1.57,1.08,2.7,2.01,3.41,2.78s1.29,1.86,1.74,3.24c.46,1.38.54,2.8.25,4.24-.29,1.44-1.01,3.01-2.17,4.69-1.12,1.63-2.35,2.91-3.68,3.83-1.33.92-2.65,1.45-3.95,1.58-1.3.13-2.54-.01-3.71-.43s-2.7-1.27-4.59-2.56l-7.4-5.09c-2.22-1.53-3.76-3.03-4.63-4.51-.87-1.48-1.17-3.14-.92-4.97.26-1.83,1-3.63,2.21-5.4,1.49-2.17,3.13-3.67,4.92-4.51,1.79-.84,3.56-1.08,5.31-.71,1.75.37,3.85,1.4,6.31,3.09l3.36,2.32ZM265.81,204.04l-1.85-1.28c-1.31-.9-2.21-1.42-2.69-1.54-.48-.12-.87.03-1.16.46-.37.54-.43.98-.2,1.33.24.35,1.07,1.02,2.5,2l1.85,1.28,1.55-2.25Z"/>
    <path class="st1" d="M266.81,180.02l3.49,2.09c-2.02-2.48-2.55-4.92-1.59-7.33l9.77,4.69c-.74,1.55-1.08,2.78-1.01,3.71.07.93.44,1.65,1.1,2.18.66.53,2.34,1.44,5.03,2.73l10.96,5.27-4.06,8.45-27.75-13.34,4.06-8.45Z"/>
  </g>
  <path class="st1" d="M141.92,11.34c.2-.03.39-.05.61-.08s.44-.05.66-.07.44-.04.67-.06c.26-.02.48-.07.64-.3.17-.25-.06-.55-.32-.56-.53-.03-1.07.14-1.59.21s-.97.16-1.49.17l.36.47v-.02c-.02.06-.06.11-.09.17-.02.02-.04.03-.06.04-.03.01-.03.01,0,0,.02,0,.07-.01.1-.02.07-.01.12-.02.16-.02.14-.02.28-.03.42-.05.29-.03.58-.05.86-.07s.56-.05.84-.09c.31-.04.66-.07.83-.37s-.11-.63-.42-.55c-.34.08-.69.09-1.07.12s-.77.07-1.16.11c-.78.08-1.56.17-2.32.33-.19.04-.32.28-.26.46.07.2.26.31.46.26.76-.16,1.45-.24,2.21-.32.39-.04.77-.08,1.16-.11s.79-.05,1.18-.14l-.42-.55s.08-.06.04-.04c-.03.02.05,0-.01,0-.06,0-.12.02-.18.03-.11.02-.24.03-.39.05-.29.03-.58.05-.86.08s-.58.05-.86.08c-.33.04-.74.03-.87.41-.08.23.13.48.36.47.54-.01,1.07-.11,1.6-.19.25-.04.51-.08.76-.13s.45-.08.72-.07l-.32-.56s.06-.07.11-.09c-.02,0-.04.01-.06.02.07-.02,0,0-.04,0-.1,0-.21.02-.31.03-.19.02-.38.03-.58.06-.42.04-.83.1-1.25.15-.19.03-.32.29-.26.46.07.21.25.29.46.26h0Z"/>
  <path class="st1" d="M144.3,10.85c.48,0,.48-.75,0-.75s-.48.75,0,.75h0Z"/>
  <path class="st1" d="M163.04,31.77c7.19,4.32,14.4,11.04,21.64,20.15,14.01,17.85,22.98,38.93,26.78,51.3,3.8,12.6,5.66,25,5.57,35.69-.1,10.71-1.47,19.5-4.14,25.88-2.67,6.31-8.86,16.43-18.61,26.31-12.03,12.1-24.1,19.57-36.22,22.36-9.32,2.08-16.05-.02-20.16-2.51-4.11-2.56-8.23-6.77-12.38-11.98-4.14-5.21-8.3-11.16-12.48-17.33-4.17-6.13-9.74-14.75-16.67-23.38-12.19-15.13-24.32-23.43-36.38-24.91,34.72,4.18,69.07-29.85,103.04-101.59ZM174.49,93.04c-22.46,35.66-45.08,54.99-67.87,57.83,4.17,4.57,7.53,7.99,10.06,9.05,2.53,1.02,7.26,1.29,14.17-1.44,13.42-5.41,26.79-16.57,40.09-33.43,4.65-5.91,7.47-10.57,8.46-12.99.98-2.44,1.21-5.12.67-7.89-.54-2.76-2.4-6.67-5.58-11.12Z"/>
  <text/>
</svg>